<?xml version="1.0" encoding="utf-8"?>
<!-- Generator: Adobe Illustrator 25.2.3, SVG Export Plug-In . SVG Version: 6.00 Build 0) -->
<svg version="1.1" id="Layer_2_1_" xmlns="http://www.w3.org/2000/svg" xmlns:xlink="http://www.w3.org/1999/xlink" x="0px" y="0px" viewBox="0 0 676 239" style="enable-background:new 0 0 676 239;" xml:space="preserve">
	<style type="text/css">
		.st0{fill:none;stroke:#000000;stroke-miterlimit:10;}
		.st1{fill:none;stroke:#000000;stroke-width:2;stroke-miterlimit:10;}
		.st2{fill:none;}
		.st3{font-family:'MyriadPro-Regular';}
		.st4{font-size:15px;}
	</style>
	<path class="st0" d="M661.9,148.9l-0.4,4c-5,31-19,48-19,48c-10,9-45,10-45,10h-4h-554h-2.6c0,0-11.3,0.6-13.5-3.9
	c-2.1-4.5-9.8-37.4-10.7-79.6v-16.7c0.9-42.2,8.6-75.1,10.7-79.6s13.2-3.7,13.2-3.7h2.9h554h4c0,0,35,1,45,10c0,0,14,17,19,48l0.4,4
	V148.9z" />
	<path class="st0" d="M542.5,23.6c0,0,2.5-11.2-5.4-17.2l-7.6,1.9l2.7,15.5l3.1,3.8h4.9L542.5,23.6z" />
	<path class="st0" d="M542.5,215c0,0,2.5,11.2-5.4,17.2l-7.6-1.9l2.7-15.5l3.1-3.8h4.9L542.5,215z" />
	<path class="st0" d="M560.3,210.8c0,0,36.2-14.1,35.1-91.3V119c1.1-77.2-35.1-91.3-35.1-91.3" />
	<path class="st0" d="M613.3,30.9c0,0,23.6,2.7,28.3,12.2l12,26.9L643,58.3l-16.3-19.6c0,0-10.3-7.6-14.4-8.2" />
	<path class="st0" d="M613.3,207.8c0,0,23.6-2.7,28.3-12.2l12-26.9L643,180.4L626.6,200c0,0-10.3,7.6-14.4,8.2" />
	<line class="st0" x1="441.5" y1="27.6" x2="441.5" y2="210.8" />
	<line class="st0" x1="563.7" y1="29.1" x2="441.2" y2="50.2" />
	<line class="st0" x1="563.3" y1="209.1" x2="441.2" y2="188.3" />
	<path class="st0" d="M440.9,55.4c0,0,110.6-22.5,131.8-18.4" />
	<path class="st0" d="M440.9,183.2c0,0,109.8,22.6,131,18.5" />
	<polyline class="st0" points="528.5,198.6 526,143.1 520,133.6 520,105.1 526,95.6 528.5,40.1 " />
	<path class="st0" d="M561.4,36.9c0,0,15.5,32.9,13.6,62" />
	<path class="st0" d="M561.4,201.6c0,0,15.5-32.9,13.6-62" />
	<path class="st0" d="M521.1,103.7h56.5c0,0,1.4-7.1-14.7-7.6h-37" />
	<path class="st0" d="M521.1,135h56.5c0,0,1.4,7.1-14.7,7.6h-37" />
	<path class="st0" d="M575.2,103.7c0,0,3.6,9,3.6,15.2c0,6.3-3.9,15.7-3.9,15.7" />
	<line class="st0" x1="523.2" y1="172.2" x2="520.3" y2="172.2" />
	<line class="st0" x1="523.2" y1="161.1" x2="520.3" y2="161.1" />
	<path class="st0" d="M517.4,167.7c0,3.2-0.3,6.2-0.9,8.7c-1.2,5.1-3.4,8.6-6,8.6c-3.8,0-6.9-7.7-6.9-17.3s3.1-17.3,6.9-17.3
	S517.4,158.2,517.4,167.7z" />
	<polyline class="st0" points="516.5,176.4 520,172.9 520,160.2 516.3,157.1 " />
	<polyline class="st0" points="527.6,175.3 523.4,175.3 523.4,157.8 526.6,156.5 " />
	<path class="st0" d="M503.5,165.8c0,12.5-8.8,22.6-19.6,22.6c-4.1,0-7.8-1.4-10.9-3.9c-5.2-4.1-8.6-10.9-8.6-18.7
	c0-12.5,8.8-22.6,19.6-22.6S503.5,153.3,503.5,165.8z" />
	<path class="st0" d="M486.8,61.8H477c0,0-12.6-0.2-12.4,10.6V91c-0.2,10.9,12.4,10.6,12.4,10.6h9.8V61.8z" />
	<path class="st0" d="M473.5,146.8h-9.3c0,0-12-0.2-11.8,10.2v17.6c-0.2,10.4,11.8,10.2,11.8,10.2h9.3" />
	<path class="st1" d="M507.1,195.6c0,0,13-27.6,13-76.8S507.8,43,507.8,43" />
	<rect x="390.8" y="135.1" class="st2" width="36.2" height="17.2" />
</svg>
