<?xml version="1.0" encoding="utf-8"?>
<!-- Generator: Adobe Illustrator 25.2.3, SVG Export Plug-In . SVG Version: 6.00 Build 0) -->
<svg version="1.1" id="Layer_2_1_" xmlns="http://www.w3.org/2000/svg" xmlns:xlink="http://www.w3.org/1999/xlink" x="0px" y="0px" viewBox="0 0 850.7 251" style="enable-background:new 0 0 850.7 251;" xml:space="preserve">
	<style type="text/css">
		.st0{fill:none;stroke:#000000;stroke-miterlimit:10;}
		.st1{fill:none;}
		.st2{font-family:'MyriadPro-Regular';}
		.st3{font-size:15px;}
		.st4{font-size:14.8195px;}
	</style>
	<path class="st0" d="M836.7,160.6l-0.5,4.7c-6.3,36.3-24.1,56.2-24.1,56.2c-12.7,10.5-57,11.7-57,11.7H750H47.6l-3.3,0.1
	c0,0-14.4,0.7-17.1-4.5S14.7,185,13.6,135.6V116c1.1-49.4,10.9-88,13.6-93.2S44,18.3,44,18.3h3.6H750h5.1c0,0,44.4,1.2,57,11.7
	c0,0,17.7,19.9,24.1,56.2l0.5,4.7L836.7,160.6L836.7,160.6z" />
	<line class="st0" x1="783.2" y1="189.8" x2="780.3" y2="189.8" />
	<line class="st0" x1="783.2" y1="178.7" x2="780.3" y2="178.7" />
	<path class="st0" d="M777.4,185.3c0,3.2-0.3,6.2-0.9,8.7c-1.2,5.1-3.4,8.6-6,8.6c-3.8,0-6.9-7.7-6.9-17.3c0-9.6,3.1-17.3,6.9-17.3
	S777.4,175.7,777.4,185.3z" />
	<polyline class="st0" points="776.5,194 780,190.5 780,177.8 776.2,174.7 " />
	<polyline class="st0" points="787.6,192.8 783.4,192.8 783.4,175.3 786.6,174 " />
	<path class="st0" d="M763.5,183.3c0,12.5-8.8,22.6-19.6,22.6c-4.1,0-7.8-1.4-10.9-3.9c-5.2-4.1-8.6-10.9-8.6-18.7
	c0-12.5,8.8-22.6,19.6-22.6C754.8,160.7,763.5,170.8,763.5,183.3z" />
	<path class="st0" d="M733.5,164.3h-9.3c0,0-12-0.2-11.8,10.2v17.6c-0.2,10.4,11.8,10.2,11.8,10.2h9.3" />
	<path class="st0" d="M791.4,22.2c0,0,21.7,86.2-67.9,117.3V233" />
	<line class="st0" x1="703.1" y1="233" x2="703.1" y2="18" />
	<polyline class="st0" points="803.6,25.5 809.8,64.6 831.2,66.5 " />
	<polyline class="st0" points="803.6,226.2 809.8,187.1 831.2,185.2 " />
	<line class="st0" x1="787.8" y1="229.9" x2="787.8" y2="80.3" />
	<polyline class="st0" points="184.6,232.8 184.6,146.5 116.6,146.5 116.6,233.1 " />
	<line class="st0" x1="116.6" y1="164.1" x2="184.9" y2="164.1" />
	<line class="st0" x1="116.6" y1="181.2" x2="184.9" y2="181.2" />
	<line class="st0" x1="116.6" y1="198.3" x2="184.9" y2="198.3" />
</svg>
